
<svg xmlns="http://www.w3.org/2000/svg" version="1.1" xmlns:xlink="http://www.w3.org/1999/xlink" preserveAspectRatio="none" x="0px" y="0px" width="550px" height="400px" viewBox="0 0 550 400">
<defs>
<g id="Layer18_0_FILL">
<path fill="#663300" stroke="none" d="
M 257.05 317.05
L 256 317.05 256 317.05 256 364.95 285 364.95 285 317.05 257.05 317.05 Z"/>

<path fill="#003300" stroke="none" d="
M 256 317.05
L 257.05 317.05 396.6 313.7 283.25 29.35 152.4 319.55 256 317.05 256 317.05
M 327.75 180.1
Q 329 184.2 329 190 329 195.8 327.75 199.9 326.55 204 324.8 204 323.05 204 321.8 199.9 320.6 195.8 320.6 190 320.6 184.2 321.8 180.1 322.434765625 178.0177734375 323.2 177 323.9388671875 176 324.8 176 326.153125 176 327.15 178.45 327.4779296875 179.1703125 327.75 180.1
M 339.8 228.9
Q 342.05 233.9 342.05 240.95 342.05 248 339.8 252.95 337.55 257.95 334.4 257.95 331.25 257.95 329 252.95 326.75 248 326.75 240.95 326.75 233.9 329 228.9 331.25 223.95 334.4 223.95 337.55 223.95 339.8 228.9
M 340.15 289.3
Q 343.1001953125 289.3 345.35 290.9 346.04609375 291.39609375 346.65 292 349.35 294.7 349.35 298.5 349.35 302.3 346.65 305 343.95 307.7 340.15 307.7 336.35 307.7 333.65 305 330.95 302.3 330.95 298.5 330.95 294.7 333.65 292 335.0806640625 290.5693359375 336.8 289.9 338.363671875 289.3 340.15 289.3
M 235.9 145
Q 237.26640625 143.5 238.9 143.5 241.6779296875 143.5 243.65 147.85 243.78046875 148.1142578125 243.9 148.4 246 153.3 246 160.25 246 167.2 243.9 172.1 241.85 177 238.9 177 235.95 177 233.85 172.1 231.8 167.2 231.8 160.25 231.8 153.3 233.85 148.4 234.787109375 146.21328125 235.9 145
M 287.15 106.6
Q 289 110.65 289 116.3 289 121.95 287.15 125.95 285.3 130 282.65 130 280 130 278.15 125.95 276.3 121.95 276.3 116.3 276.3 110.65 278.15 106.6 280 102.6 282.65 102.6 285.3 102.6 287.15 106.6
M 306.3 99.15
Q 308.05 103.25 308.05 109.05 308.05 114.85 306.3 118.9 304.55 123 302.05 123 299.55 123 297.8 118.9 296.05 114.85 296.05 109.05 296.05 103.25 297.8 99.15 299.55 95.1 302.05 95.1 304.55 95.1 306.3 99.15
M 264.85 113.3
Q 266.05 117.05 266.05 122.3 266.05 127.55 264.85 131.25 263.65 135 261.95 135 260.25 135 259.05 131.25 257.85 127.55 257.85 122.3 257.85 117.05 259.05 113.3 260.25 109.6 261.95 109.6 263.65 109.6 264.85 113.3
M 264.7 155.55
Q 265.831640625 154.3 267.15 154.3 269.3658203125 154.3 270.95 157.85 271.1375 158.234375 271.3 158.65 273.05 163 273.05 169.15 273.05 175.3 271.3 179.65 269.6 184 267.15 184 264.7 184 262.95 179.65 261.25 175.3 261.25 169.15 261.25 163 262.95 158.65 263.7583984375 156.640625 264.7 155.55
M 293.15 164.2
Q 294.6671875 164.2 295.85 166.95 296.212109375 167.84140625 296.55 169 298 173.8 298 180.6 298 187.4 296.55 192.2 295.15 197 293.15 197 291.15 197 289.7 192.2 288.3 187.4 288.3 180.6 288.3 173.8 289.7 169 290.4490234375 166.520703125 291.35 165.3 292.1830078125 164.2 293.15 164.2
M 306.15 233.7
Q 307.05 237.7 307.05 243.35 307.05 249 306.15 252.95 305.25 256.95 304 256.95 302.75 256.95 301.85 252.95 300.95 249 300.95 243.35 300.95 237.7 301.85 233.7 302.75 229.75 304 229.75 305.25 229.75 306.15 233.7
M 273.55 237.15
Q 275.4 237.15 276.7 241.65 278 246.15 278 252.55 278 258.95 276.7 263.45 275.4 267.95 273.55 267.95 271.7 267.95 270.4 263.45 269.1 258.95 269.1 252.55 269.1 246.15 270.4 241.65 271.7 237.15 273.55 237.15
M 251.5 279.05
Q 252.1439453125 279.05 252.7 279.8 253.41640625 280.7376953125 254 282.85 255.05 286.65 255.05 292 255.05 297.35 254 301.15 252.95 304.95 251.5 304.95 250.05 304.95 249 301.15 247.95 297.35 247.95 292 247.95 286.65 249 282.85 249.6740234375 280.4107421875 250.5 279.5 250.980859375 279.05 251.5 279.05
M 279.65 282.45
Q 280.3099609375 282.45 280.85 283.15 281.4978515625 284.0056640625 282 285.75 283 289.05 283 293.7 283 298.35 282 301.65 281.05 304.95 279.65 304.95 278.25 304.95 277.25 301.65 276.3 298.35 276.3 293.7 276.3 289.05 277.25 285.75 277.8767578125 283.681640625 278.65 282.9 279.1275390625 282.45 279.65 282.45
M 303.05 287.5
Q 303.971875 286.578125 305.05 286.05 306.363671875 285.5 307.9 285.5 310.3091796875 285.5 312.1 286.9 312.440625 287.190625 312.75 287.5 314.75 289.5 314.75 292.35 314.75 295.2 312.75 297.2 310.75 299.2 307.9 299.2 305.05 299.2 303.05 297.2 301.05 295.2 301.05 292.35 301.05 289.5 303.05 287.5
M 192.1 271.65
Q 193.08046875 271.65 193.9 272.7 194.8435546875 273.8978515625 195.6 276.35 197.05 281.1 197.05 287.8 197.05 294.5 195.6 299.2 194.15 303.95 192.1 303.95 190.05 303.95 188.6 299.2 187.15 294.5 187.15 287.8 187.15 281.1 188.6 276.35 189.4990234375 273.4359375 190.6 272.3 191.3208984375 271.65 192.1 271.65
M 200.05 260.85
Q 200.05 257.65 202.3 255.4 204.55 253.15 207.75 253.15 210.95 253.15 213.2 255.4 215.45 257.65 215.45 260.85 215.45 264.05 213.2 266.3 210.95 268.55 207.75 268.55 204.55 268.55 202.3 266.3 200.05 264.05 200.05 260.85
M 242.85 263.7
Q 241.7 266.95 240 266.95 238.3 266.95 237.1 263.7 235.95 260.45 235.95 255.85 235.95 251.25 237.1 248 238.3 244.75 240 244.75 241.7 244.75 242.85 248 244.05 251.25 244.05 255.85 244.05 260.45 242.85 263.7
M 216 277.95
Q 217.4359375 276.5140625 219.15 275.75 221.0341796875 274.95 223.25 274.95 226.7541015625 274.95 229.4 277 229.9734375 277.4234375 230.5 277.95 233.5 280.95 233.5 285.2 233.5 289.45 230.5 292.45 227.5 295.45 223.25 295.45 219 295.45 216 292.45 213 289.45 213 285.2 213 280.95 216 277.95 Z"/>
</g>

<g id="Layer16_0_FILL">
<path fill="#FFFF00" stroke="none" d="
M 342.05 240.95
Q 342.05 233.9 339.8 228.9 337.55 223.95 334.4 223.95 331.25 223.95 329 228.9 326.75 233.9 326.75 240.95 326.75 248 329 252.95 331.25 257.95 334.4 257.95 337.55 257.95 339.8 252.95 342.05 248 342.05 240.95 Z"/>
</g>

<g id="Layer13_0_FILL">
<path fill="#FF0066" stroke="none" d="
M 308.05 109.05
Q 308.05 103.25 306.3 99.15 304.55 95.1 302.05 95.1 299.55 95.1 297.8 99.15 296.05 103.25 296.05 109.05 296.05 114.85 297.8 118.9 299.55 123 302.05 123 304.55 123 306.3 118.9 308.05 114.85 308.05 109.05 Z"/>
</g>

<g id="Layer5_0_FILL">
<path fill="#FF0066" stroke="none" d="
M 305.05 286.05
Q 303.971875 286.578125 303.05 287.5 301.05 289.5 301.05 292.35 301.05 295.2 303.05 297.2 305.05 299.2 307.9 299.2 310.75 299.2 312.75 297.2 314.75 295.2 314.75 292.35 314.75 289.5 312.75 287.5 312.440625 287.190625 312.1 286.9 310.3091796875 285.5 307.9 285.5 306.363671875 285.5 305.05 286.05 Z"/>
</g>

<g id="Layer3_0_FILL">
<path fill="#FF0000" stroke="none" d="
M 202.3 255.4
Q 200.05 257.65 200.05 260.85 200.05 264.05 202.3 266.3 204.55 268.55 207.75 268.55 210.95 268.55 213.2 266.3 215.45 264.05 215.45 260.85 215.45 257.65 213.2 255.4 210.95 253.15 207.75 253.15 204.55 253.15 202.3 255.4 Z"/>
</g>

<g id="Layer1_0_FILL">
<path fill="#FF0066" stroke="none" d="
M 213 285.2
Q 213 289.45 216 292.45 219 295.45 223.25 295.45 227.5 295.45 230.5 292.45 233.5 289.45 233.5 285.2 233.5 280.95 230.5 277.95 229.9734375 277.4234375 229.4 277 226.7541015625 274.95 223.25 274.95 221.0341796875 274.95 219.15 275.75 217.4359375 276.5140625 216 277.95 213 280.95 213 285.2 Z"/>
</g>

<g id="Layer0_0_FILL">
<path fill="#3300FF" stroke="none" d="
M 195.6 276.35
Q 194.8435546875 273.8978515625 193.9 272.7 193.08046875 271.65 192.1 271.65 191.3208984375 271.65 190.6 272.3 189.4990234375 273.4359375 188.6 276.35 187.15 281.1 187.15 287.8 187.15 294.5 188.6 299.2 190.05 303.95 192.1 303.95 194.15 303.95 195.6 299.2 197.05 294.5 197.05 287.8 197.05 281.1 195.6 276.35
M 276.7 241.65
Q 275.4 237.15 273.55 237.15 271.7 237.15 270.4 241.65 269.1 246.15 269.1 252.55 269.1 258.95 270.4 263.45 271.7 267.95 273.55 267.95 275.4 267.95 276.7 263.45 278 258.95 278 252.55 278 246.15 276.7 241.65 Z"/>

<path fill="#FF0000" stroke="none" d="
M 278.65 282.9
Q 277.8767578125 283.681640625 277.25 285.75 276.3 289.05 276.3 293.7 276.3 298.35 277.25 301.65 278.25 304.95 279.65 304.95 281.05 304.95 282 301.65 283 298.35 283 293.7 283 289.05 282 285.75 281.4978515625 284.0056640625 280.85 283.15 280.3099609375 282.45 279.65 282.45 279.1275390625 282.45 278.65 282.9
M 307.05 243.35
Q 307.05 237.7 306.15 233.7 305.25 229.75 304 229.75 302.75 229.75 301.85 233.7 300.95 237.7 300.95 243.35 300.95 249 301.85 252.95 302.75 256.95 304 256.95 305.25 256.95 306.15 252.95 307.05 249 307.05 243.35
M 327.15 178.45
Q 326.153125 176 324.8 176 323.9388671875 176 323.2 177 322.434765625 178.0177734375 321.8 180.1 320.6 184.2 320.6 190 320.6 195.8 321.8 199.9 323.05 204 324.8 204 326.55 204 327.75 199.9 329 195.8 329 190 329 184.2 327.75 180.1 327.4779296875 179.1703125 327.15 178.45
M 266.05 122.3
Q 266.05 117.05 264.85 113.3 263.65 109.6 261.95 109.6 260.25 109.6 259.05 113.3 257.85 117.05 257.85 122.3 257.85 127.55 259.05 131.25 260.25 135 261.95 135 263.65 135 264.85 131.25 266.05 127.55 266.05 122.3 Z"/>

<path fill="#33FF00" stroke="none" d="
M 250.5 279.5
Q 249.6740234375 280.4107421875 249 282.85 247.95 286.65 247.95 292 247.95 297.35 249 301.15 250.05 304.95 251.5 304.95 252.95 304.95 254 301.15 255.05 297.35 255.05 292 255.05 286.65 254 282.85 253.41640625 280.7376953125 252.7 279.8 252.1439453125 279.05 251.5 279.05 250.980859375 279.05 250.5 279.5
M 240 266.95
Q 241.7 266.95 242.85 263.7 244.05 260.45 244.05 255.85 244.05 251.25 242.85 248 241.7 244.75 240 244.75 238.3 244.75 237.1 248 235.95 251.25 235.95 255.85 235.95 260.45 237.1 263.7 238.3 266.95 240 266.95 Z"/>

<path fill="#66FF00" stroke="none" d="
M 291.35 165.3
Q 290.4490234375 166.520703125 289.7 169 288.3 173.8 288.3 180.6 288.3 187.4 289.7 192.2 291.15 197 293.15 197 295.15 197 296.55 192.2 298 187.4 298 180.6 298 173.8 296.55 169 296.212109375 167.84140625 295.85 166.95 294.6671875 164.2 293.15 164.2 292.1830078125 164.2 291.35 165.3
M 345.35 290.9
Q 343.1001953125 289.3 340.15 289.3 338.363671875 289.3 336.8 289.9 335.0806640625 290.5693359375 333.65 292 330.95 294.7 330.95 298.5 330.95 302.3 333.65 305 336.35 307.7 340.15 307.7 343.95 307.7 346.65 305 349.35 302.3 349.35 298.5 349.35 294.7 346.65 292 346.04609375 291.39609375 345.35 290.9 Z"/>

<path fill="#FFFF00" stroke="none" d="
M 267.15 154.3
Q 265.831640625 154.3 264.7 155.55 263.7583984375 156.640625 262.95 158.65 261.25 163 261.25 169.15 261.25 175.3 262.95 179.65 264.7 184 267.15 184 269.6 184 271.3 179.65 273.05 175.3 273.05 169.15 273.05 163 271.3 158.65 271.1375 158.234375 270.95 157.85 269.3658203125 154.3 267.15 154.3
M 289 116.3
Q 289 110.65 287.15 106.6 285.3 102.6 282.65 102.6 280 102.6 278.15 106.6 276.3 110.65 276.3 116.3 276.3 121.95 278.15 125.95 280 130 282.65 130 285.3 130 287.15 125.95 289 121.95 289 116.3 Z"/>

<path fill="#FF0099" stroke="none" d="
M 235.9 145
Q 234.787109375 146.21328125 233.85 148.4 231.8 153.3 231.8 160.25 231.8 167.2 233.85 172.1 235.95 177 238.9 177 241.85 177 243.9 172.1 246 167.2 246 160.25 246 153.3 243.9 148.4 243.78046875 148.1142578125 243.65 147.85 241.6779296875 143.5 238.9 143.5 237.26640625 143.5 235.9 145 Z"/>

<path fill="#00CC33" stroke="none" d="
M 342.05 240.95
Q 342.05 233.9 339.8 228.9 337.55 223.95 334.4 223.95 331.25 223.95 329 228.9 326.75 233.9 326.75 240.95 326.75 248 329 252.95 331.25 257.95 334.4 257.95 337.55 257.95 339.8 252.95 342.05 248 342.05 240.95 Z"/>
</g>

<path id="Layer17_0_1_STROKES" stroke="#000000" stroke-width="1" stroke-linejoin="round" stroke-linecap="round" fill="none" d="
M 327.175 178.45
Q 327.4779296875 179.1703125 327.75 180.1 329 184.2 329 190 329 195.8 327.75 199.9 326.55 204 324.8 204 323.05 204 321.8 199.9 320.6 195.8 320.6 190 320.6 184.2 321.8 180.1 322.434765625 178.0177734375 323.2 177"/>

<path id="Layer15_0_1_STROKES" stroke="#000000" stroke-width="1" stroke-linejoin="round" stroke-linecap="round" fill="none" d="
M 345.375 290.925
Q 346.04609375 291.39609375 346.65 292 349.35 294.7 349.35 298.5 349.35 302.3 346.65 305 343.95 307.7 340.15 307.7 336.35 307.7 333.65 305 330.95 302.3 330.95 298.5 330.95 294.7 333.65 292 335.0806640625 290.5693359375 336.825 289.9"/>

<path id="Layer14_0_1_STROKES" stroke="#000000" stroke-width="1" stroke-linejoin="round" stroke-linecap="round" fill="none" d="
M 243.65 147.85
Q 243.78046875 148.1142578125 243.9 148.4 246 153.3 246 160.25 246 167.2 243.9 172.1 241.85 177 238.9 177 235.95 177 233.85 172.1 231.8 167.2 231.8 160.25 231.8 153.3 233.85 148.4 234.787109375 146.21328125 235.9 145"/>

<path id="Layer12_0_1_STROKES" stroke="#000000" stroke-width="1" stroke-linejoin="round" stroke-linecap="round" fill="none" d="
M 266.05 122.3
Q 266.05 127.55 264.85 131.25 263.65 135 261.95 135 260.25 135 259.05 131.25 257.85 127.55 257.85 122.3 257.85 117.05 259.05 113.3 260.25 109.6 261.95 109.6 263.65 109.6 264.85 113.3 266.05 117.05 266.05 122.3 Z"/>

<path id="Layer11_0_1_STROKES" stroke="#000000" stroke-width="1" stroke-linejoin="round" stroke-linecap="round" fill="none" d="
M 270.975 157.85
Q 271.1375 158.234375 271.3 158.65 273.05 163 273.05 169.15 273.05 175.3 271.3 179.65 269.6 184 267.15 184 264.7 184 262.95 179.65 261.25 175.3 261.25 169.15 261.25 163 262.95 158.65 263.7583984375 156.640625 264.725 155.55"/>

<path id="Layer10_0_1_STROKES" stroke="#000000" stroke-width="1" stroke-linejoin="round" stroke-linecap="round" fill="none" d="
M 295.85 166.975
Q 296.212109375 167.84140625 296.55 169 298 173.8 298 180.6 298 187.4 296.55 192.2 295.15 197 293.15 197 291.15 197 289.7 192.2 288.3 187.4 288.3 180.6 288.3 173.8 289.7 169 290.4490234375 166.520703125 291.35 165.325"/>

<path id="Layer9_0_1_STROKES" stroke="#000000" stroke-width="1" stroke-linejoin="round" stroke-linecap="round" fill="none" d="
M 307.05 243.35
Q 307.05 249 306.15 252.95 305.25 256.95 304 256.95 302.75 256.95 301.85 252.95 300.95 249 300.95 243.35 300.95 237.7 301.85 233.7 302.75 229.75 304 229.75 305.25 229.75 306.15 233.7 307.05 237.7 307.05 243.35 Z"/>

<path id="Layer8_0_1_STROKES" stroke="#000000" stroke-width="1" stroke-linejoin="round" stroke-linecap="round" fill="none" d="
M 278 252.55
Q 278 258.95 276.7 263.45 275.4 267.95 273.55 267.95 271.7 267.95 270.4 263.45 269.1 258.95 269.1 252.55 269.1 246.15 270.4 241.65 271.7 237.15 273.55 237.15 275.4 237.15 276.7 241.65 278 246.15 278 252.55 Z"/>

<path id="Layer7_0_1_STROKES" stroke="#000000" stroke-width="1" stroke-linejoin="round" stroke-linecap="round" fill="none" d="
M 252.7 279.8
Q 253.41640625 280.7376953125 254 282.85 255.05 286.65 255.05 292 255.05 297.35 254 301.15 252.95 304.95 251.5 304.95 250.05 304.95 249 301.15 247.95 297.35 247.95 292 247.95 286.65 249 282.85 249.6740234375 280.4107421875 250.525 279.525"/>

<path id="Layer6_0_1_STROKES" stroke="#000000" stroke-width="1" stroke-linejoin="round" stroke-linecap="round" fill="none" d="
M 280.875 283.175
Q 281.4978515625 284.0056640625 282 285.75 283 289.05 283 293.7 283 298.35 282 301.65 281.05 304.95 279.65 304.95 278.25 304.95 277.25 301.65 276.3 298.35 276.3 293.7 276.3 289.05 277.25 285.75 277.8767578125 283.681640625 278.65 282.9"/>

<path id="Layer4_0_1_STROKES" stroke="#000000" stroke-width="1" stroke-linejoin="round" stroke-linecap="round" fill="none" d="
M 193.925 272.725
Q 194.8435546875 273.8978515625 195.6 276.35 197.05 281.1 197.05 287.8 197.05 294.5 195.6 299.2 194.15 303.95 192.1 303.95 190.05 303.95 188.6 299.2 187.15 294.5 187.15 287.8 187.15 281.1 188.6 276.35 189.4990234375 273.4359375 190.625 272.325"/>

<path id="Layer2_0_1_STROKES" stroke="#000000" stroke-width="1" stroke-linejoin="round" stroke-linecap="round" fill="none" d="
M 244.05 255.85
Q 244.05 260.45 242.85 263.7 241.7 266.95 240 266.95 238.3 266.95 237.1 263.7 235.95 260.45 235.95 255.85 235.95 251.25 237.1 248 238.3 244.75 240 244.75 241.7 244.75 242.85 248 244.05 251.25 244.05 255.85 Z"/>

<path id="Layer0_0_1_STROKES" stroke="#000000" stroke-width="1" stroke-linejoin="round" stroke-linecap="round" fill="none" d="
M 327.175 178.45
L 345.325 185.1
M 244.875 114.5
L 307.7 90.7
M 231.8 143.5
L 235.9 145
Q 237.26640625 143.5 238.9 143.5 241.6779296875 143.5 243.65 147.85
L 264.725 155.55
Q 265.831640625 154.3 267.15 154.3 269.3658203125 154.3 270.975 157.85
L 291.35 165.325
Q 292.1830078125 164.2 293.15 164.2 294.6671875 164.2 295.85 166.975
L 323.2 177
Q 323.9388671875 176 324.8 176 326.153125 176 327.175 178.45
M 342.05 240.95
Q 342.05 248 339.8 252.95 337.55 257.95 334.4 257.95 331.25 257.95 329 252.95 326.75 248 326.75 240.95 326.75 233.9 329 228.9 331.25 223.95 334.4 223.95 337.55 223.95 339.8 228.9 342.05 233.9 342.05 240.95 Z
M 336.825 289.9
Q 338.363671875 289.3 340.15 289.3 343.1001953125 289.3 345.375 290.925
L 389.65 296.25
M 180.325 257.65
L 357.9 216.65
M 174.575 270.4
L 190.625 272.325
Q 191.3208984375 271.65 192.1 271.65 193.08046875 271.65 193.925 272.725
L 219.15 275.775
Q 221.0341796875 274.95 223.25 274.95 226.7541015625 274.95 229.4 277
L 250.525 279.525
Q 250.980859375 279.05 251.5 279.05 252.1439453125 279.05 252.7 279.8
L 278.65 282.9
Q 279.1275390625 282.45 279.65 282.45 280.3099609375 282.45 280.875 283.175
L 305.075 286.075
Q 306.363671875 285.5 307.9 285.5 310.3091796875 285.5 312.1 286.925
L 336.825 289.9
M 308.05 109.05
Q 308.05 114.85 306.3 118.9 304.55 123 302.05 123 299.55 123 297.8 118.9 296.05 114.85 296.05 109.05 296.05 103.25 297.8 99.15 299.55 95.1 302.05 95.1 304.55 95.1 306.3 99.15 308.05 103.25 308.05 109.05 Z
M 289 116.3
Q 289 121.95 287.15 125.95 285.3 130 282.65 130 280 130 278.15 125.95 276.3 121.95 276.3 116.3 276.3 110.65 278.15 106.6 280 102.6 282.65 102.6 285.3 102.6 287.15 106.6 289 110.65 289 116.3 Z
M 312.1 286.925
Q 312.440625 287.190625 312.75 287.5 314.75 289.5 314.75 292.35 314.75 295.2 312.75 297.2 310.75 299.2 307.9 299.2 305.05 299.2 303.05 297.2 301.05 295.2 301.05 292.35 301.05 289.5 303.05 287.5 303.971875 286.578125 305.075 286.075
M 215.45 260.85
Q 215.45 264.05 213.2 266.3 210.95 268.55 207.75 268.55 204.55 268.55 202.3 266.3 200.05 264.05 200.05 260.85 200.05 257.65 202.3 255.4 204.55 253.15 207.75 253.15 210.95 253.15 213.2 255.4 215.45 257.65 215.45 260.85 Z
M 229.4 277
Q 229.9734375 277.4234375 230.5 277.95 233.5 280.95 233.5 285.2 233.5 289.45 230.5 292.45 227.5 295.45 223.25 295.45 219 295.45 216 292.45 213 289.45 213 285.2 213 280.95 216 277.95 217.4359375 276.5140625 219.15 275.775"/>

<path id="Layer0_0_2_STROKES" stroke="#006600" stroke-width="1" stroke-linejoin="round" stroke-linecap="round" fill="none" d="
M 345.325 185.1
L 307.7 90.7
M 244.875 114.5
L 231.8 143.5
M 389.65 296.25
L 357.9 216.65
M 180.325 257.65
L 174.575 270.4
M 257.05 317.05
L 396.6 313.7 389.65 296.25
M 357.9 216.65
L 345.325 185.1
M 307.7 90.7
L 283.25 29.35 244.875 114.5
M 256 317.075
L 152.4 319.55 174.575 270.4
M 231.8 143.5
L 180.325 257.65"/>

<path id="Layer0_0_3_STROKES" stroke="#663300" stroke-width="1" stroke-linejoin="round" stroke-linecap="round" fill="none" d="
M 256 317.075
L 256 317.05 257.05 317.05 285 317.05 285 364.95 256 364.95 256 317.075 Z"/>
</defs>

<g transform="matrix( 1, 0, 0, 1, 0,0) ">
<use xlink:href="#Layer18_0_FILL"/>
</g>

<g transform="matrix( 1, 0, 0, 1, 0,0) ">
<use xlink:href="#Layer17_0_1_STROKES"/>
</g>

<g transform="matrix( 1, 0, 0, 1, 0,0) ">
<use xlink:href="#Layer16_0_FILL"/>
</g>

<g transform="matrix( 1, 0, 0, 1, 0,0) ">
<use xlink:href="#Layer15_0_1_STROKES"/>
</g>

<g transform="matrix( 1, 0, 0, 1, 0,0) ">
<use xlink:href="#Layer14_0_1_STROKES"/>
</g>

<g transform="matrix( 1, 0, 0, 1, 0,0) ">
<use xlink:href="#Layer13_0_FILL"/>
</g>

<g transform="matrix( 1, 0, 0, 1, 0,0) ">
<use xlink:href="#Layer12_0_1_STROKES"/>
</g>

<g transform="matrix( 1, 0, 0, 1, 0,0) ">
<use xlink:href="#Layer11_0_1_STROKES"/>
</g>

<g transform="matrix( 1, 0, 0, 1, 0,0) ">
<use xlink:href="#Layer10_0_1_STROKES"/>
</g>

<g transform="matrix( 1, 0, 0, 1, 0,0) ">
<use xlink:href="#Layer9_0_1_STROKES"/>
</g>

<g transform="matrix( 1, 0, 0, 1, 0,0) ">
<use xlink:href="#Layer8_0_1_STROKES"/>
</g>

<g transform="matrix( 1, 0, 0, 1, 0,0) ">
<use xlink:href="#Layer7_0_1_STROKES"/>
</g>

<g transform="matrix( 1, 0, 0, 1, 0,0) ">
<use xlink:href="#Layer6_0_1_STROKES"/>
</g>

<g transform="matrix( 1, 0, 0, 1, 0,0) ">
<use xlink:href="#Layer5_0_FILL"/>
</g>

<g transform="matrix( 1, 0, 0, 1, 0,0) ">
<use xlink:href="#Layer4_0_1_STROKES"/>
</g>

<g transform="matrix( 1, 0, 0, 1, 0,0) ">
<use xlink:href="#Layer3_0_FILL"/>
</g>

<g transform="matrix( 1, 0, 0, 1, 0,0) ">
<use xlink:href="#Layer2_0_1_STROKES"/>
</g>

<g transform="matrix( 1, 0, 0, 1, 0,0) ">
<use xlink:href="#Layer1_0_FILL"/>
</g>

<g transform="matrix( 1, 0, 0, 1, 0,0) ">
<use xlink:href="#Layer0_0_FILL"/>

<use xlink:href="#Layer0_0_1_STROKES"/>

<use xlink:href="#Layer0_0_2_STROKES"/>

<use xlink:href="#Layer0_0_3_STROKES"/>
</g>
</svg>
